#!OML:ASF F:\VICON\USERDATA\INSTALL\rory3\rory3.ASF
:FULLY-SPECIFIED
:DEGREES
1936
root 0.120891 17.4497 0.347852 5.86413 -0.32343 -1.98165
lowerback -5.94789 -0.21093 -0.874844
upperback -4.68199 -0.229605 2.25078
thorax -1.47735 -0.0598626 2.79838
lowerneck -17.1313 -10.2999 -13.76
upperneck 39.5157 -15.3938 9.05791
head 20.4893 -7.01598 3.32053
rclavicle -1.02374e-014 2.38542e-015
rhumerus -34.5331 -9.55201 -71.7768
rradius 20.6242
rwrist 34.443
rhand -2.30654 14.2997
rfingers 7.12502
rthumb 23.3793 -14.3003
lclavicle -1.02374e-014 2.38542e-015
lhumerus 324.937 -9.70378 -265.11
lradius 19.2761
lwrist -19.2278
lhand -21.2401 20.6248
lfingers 7.12502
lthumb 5.14248 50.5424
rfemur 4.15155 13.1591 21.0018
rtibia -6.36111e-015
rfoot -7.54918 -12.7656
rtoes -13.9917
lfemur -3.99432 -22.4618 -17.1947
ltibia 14.7158
lfoot -16.4401 17.5165
ltoes -14.1054
1937
root 0.118085 17.4502 0.344627 5.93547 -0.393667 -2.04935
lowerback -6.00167 -0.222993 -0.840433
upperback -4.76248 -0.246072 2.27715
thorax -1.53 -0.0674219 2.80579
lowerneck -17.1243 -10.2582 -13.7639
upperneck 39.6584 -15.2852 8.92135
head 20.5396 -6.99356 3.28544
rclavicle 2.03754e-015 3.57812e-015
rhumerus -34.3575 -10.247 -71.3894
rradius 20.1815
rwrist 35.256
rhand -2.00273 14.5328
rfingers 7.12502
rthumb 23.6708 -14.0298
lclavicle 2.03754e-015 3.57812e-015
lhumerus 325.153 -10.2091 -265.302
lradius 19.0042
lwrist -20.2643
lhand -19.7293 19.8843
lfingers 7.12502
lthumb 6.60114 49.7614
rfemur 4.05367 13.2384 21.0608
rtibia 7.95139e-015
rfoot -7.53502 -12.7647
rtoes -13.7078
lfemur -4.13023 -22.3279 -17.0625
ltibia 14.7843
lfoot -16.5151 17.4984
ltoes -14.3188
1938
root 0.114842 17.4512 0.343298 5.9952 -0.410464 -2.08232
lowerback -6.0772 -0.235623 -0.813811
upperback -4.82434 -0.263442 2.27275
thorax -1.55128 -0.0761575 2.78555
lowerneck -17.1315 -10.2293 -13.7663
upperneck 39.7987 -15.2095 8.81509
head 20.6047 -6.97897 3.25613
rclavicle 9.0447e-015 7.55382e-015
rhumerus -34.2005 -11.1766 -70.9408
rradius 19.6052
rwrist 36.4759
rhand -2.07828 14.7184
rfingers 7.12502
rthumb 23.5983 -13.8535
lclavicle 9.0447e-015 7.55382e-015
lhumerus 325.427 -10.5634 -265.627
lradius 18.7474
lwrist -21.6067
lhand -17.473 19.5232
lfingers 7.12502
lthumb 8.77887 49.3206
rfemur 3.98419 13.26 21.0944
rtibia -1.27222e-014
rfoot -7.48621 -12.7844
rtoes -14.1266
lfemur -4.28182 -22.252 -16.9766
ltibia 14.9208
lfoot -16.8136 17.3657
ltoes -13.7455
1939
root 0.112984 17.4514 0.342959 6.03518 -0.437096 -2.21364
lowerback -6.16986 -0.233087 -0.663206
upperback -4.87027 -0.266199 2.29293
thorax -1.54759 -0.0807605 2.72141
lowerneck -17.1531 -10.1948 -13.7438
upperneck 39.9756 -15.1161 8.66391
head 20.6849 -6.95883 3.20487
rclavicle 1.09332e-015 -1.23246e-014
rhumerus -33.9977 -11.9063 -70.6253
rradius 19.004
rwrist 37.5872
rhand -2.32661 14.6609
rfingers 7.12502
rthumb 23.3601 -13.9415
lclavicle 1.09332e-015 -1.23246e-014
lhumerus 325.712 -10.9119 -265.96
lradius 18.496
lwrist -23.1022
lhand -14.8535 19.4035
lfingers 7.12502
lthumb 11.306 49.0788
rfemur 3.92652 13.3019 21.2366
rtibia 4.77083e-015
rfoot -7.44211 -12.7948
rtoes -14.0684
lfemur -4.41511 -22.1577 -16.812
ltibia 15.0955
lfoot -16.8125 17.337
ltoes -14.0899
1940
root 0.111077 17.4513 0.343747 6.08216 -0.495233 -2.3136
lowerback -6.26262 -0.217492 -0.563233
upperback -4.93829 -0.249365 2.29156
thorax -1.56775 -0.0742479 2.66459
lowerneck -17.1235 -10.1425 -13.6535
upperneck 40.1281 -15.0236 8.51458
head 20.7249 -6.93078 3.14436
rclavicle -2.98177e-015 8.34896e-015
rhumerus -33.8712 -12.6127 -70.3573
rradius 18.395
rwrist 38.7653
rhand -2.70024 14.6562
rfingers 7.12502
rthumb 23.0016 -13.9914
lclavicle -2.98177e-015 8.34896e-015
lhumerus 326.032 -11.0793 -266.361
lradius 18.0864
lwrist -24.4175
lhand -12.451 19.2237
lfingers 7.12502
lthumb 13.6224 48.758
rfemur 3.87651 13.3715 21.3415
rtibia 1.11319e-014
rfoot -7.43026 -12.7867
rtoes -13.8103
lfemur -4.52204 -22.247 -16.7
ltibia 15.2453
lfoot -16.7868 17.5408
ltoes -14.483
1941
root 0.109132 17.4514 0.344227 6.09918 -0.572191 -2.44956
lowerback -6.32656 -0.203484 -0.429894
upperback -4.99051 -0.236394 2.2873
thorax -1.58736 -0.0708116 2.58582
lowerneck -17.0998 -10.0678 -13.5084
upperneck 40.2415 -14.918 8.38653
head 20.733 -6.88656 3.08752
rclavicle 6.36111e-015 -2.46493e-014
rhumerus -33.8183 -13.1674 -70.2262
rradius 17.9308
rwrist 39.8123
rhand -2.9692 14.6284
rfingers 7.12502
rthumb 22.7435 -14.0511
lclavicle 6.36111e-015 -2.46493e-014
lhumerus 326.382 -11.1145 -266.83
lradius 17.6042
lwrist -25.6147
lhand -10.3172 18.9075
lfingers 7.12502
lthumb 15.6781 48.2923
rfemur 3.84931 13.4635 21.4912
rtibia -1.59028e-015
rfoot -7.42608 -12.8055
rtoes -13.5594
lfemur -4.6009 -22.4071 -16.5664
ltibia 15.4066
lfoot -16.7243 17.838
ltoes -15.1028
1942
root 0.10886 17.4517 0.344609 6.07494 -0.663499 -2.52562
lowerback -6.39585 -0.182294 -0.338595
upperback -4.97948 -0.213317 2.26987
thorax -1.53879 -0.0623891 2.5173
lowerneck -17.1503 -10.0289 -13.4406
upperneck 40.3068 -14.8597 8.3362
head 20.7636 -6.85889 3.06583
rclavicle 1.93318e-014 -3.97569e-016
rhumerus -33.7308 -13.6447 -70.176
rradius 17.5898
rwrist 40.743
rhand -3.20638 14.4137
rfingers 7.12502
rthumb 22.5159 -14.2935
lclavicle 1.93318e-014 -3.97569e-016
lhumerus 326.854 -10.9294 -267.418
lradius 17.1211
lwrist -27.1501
lhand -8.05217 18.5781
lfingers 7.12502
lthumb 17.8586 47.7781
rfemur 3.86813 13.5621 21.5742
rtibia 9.54166e-015
rfoot -7.44254 -12.828
rtoes -13.558
lfemur -4.59827 -22.6295 -16.5331
ltibia 15.5388
lfoot -16.6461 18.1615
ltoes -15.5724
1943
root 0.109946 17.4518 0.34575 6.04175 -0.77551 -2.64722
lowerback -6.45777 -0.144739 -0.184143
upperback -4.95507 -0.171589 2.27501
thorax -1.48129 -0.0459806 2.43753
lowerneck -17.2053 -10.0296 -13.4569
upperneck 40.3309 -14.856 8.34552
head 20.7998 -6.85704 3.0726
rclavicle -1.18774e-014 2.06736e-014
rhumerus -33.6943 -14.1743 -70.0911
rradius 17.3895
rwrist 41.7873
rhand -3.47312 14.2072
rfingers 7.12502
rthumb 22.2598 -14.5308
lclavicle -1.18774e-014 2.06736e-014
lhumerus 327.403 -10.4048 -268.095
lradius 16.582
lwrist -28.9984
lhand -5.93561 18.7262
lfingers 7.12502
lthumb 19.8943 47.7279
rfemur 3.8919 13.6861 21.708
rtibia 0
rfoot -7.35432 -12.8667
rtoes -14.2029
lfemur -4.54973 -22.7937 -16.4733
ltibia 15.6347
lfoot -16.7842 18.4075
ltoes -15.0594
